<svg width="32" height="24" viewBox="0 0 32 24" fill="none" xmlns="http://www.w3.org/2000/svg">
<path d="M31.897 0.301292C31.7796 0.116898 31.5793 0.00472532 31.3616 0.00126793C29.5089 -0.0279277 27.6612 0.327414 26.011 1.02773C24.63 0.526406 23.1804 0.271712 21.7 0.271712C20.2195 0.271712 18.7478 0.529479 17.3577 1.0381C16.1792 1.46912 15.0737 2.07262 14.0691 2.83248C13.0642 2.07262 11.959 1.46912 10.7806 1.0381C9.39086 0.529479 7.93021 0.271712 6.43829 0.271712C4.30643 0.271712 2.19669 0.813753 0.33675 1.83944C0.128903 1.95431 0 2.17366 0 2.41183V22.0966C0 22.326 0.122038 22.5415 0.318063 22.6583C0.514087 22.7754 0.760071 22.7797 0.959908 22.6694C2.62802 21.749 4.52229 21.2626 6.43829 21.2626C8.35429 21.2626 10.3775 21.7828 12.0906 22.7674C12.4529 22.9756 12.8095 23.2076 13.1496 23.4565C13.3235 23.5841 13.4944 23.717 13.6576 23.8511C13.6641 23.8568 13.671 23.8622 13.6782 23.8672C13.6817 23.8699 13.6843 23.8718 13.6878 23.8741C13.69 23.876 13.6927 23.878 13.695 23.8795C13.7011 23.8837 13.7068 23.8876 13.7114 23.891C13.7209 23.8975 13.7308 23.9033 13.7408 23.9091C13.7564 23.9183 13.7728 23.9275 13.7896 23.9356C13.7968 23.939 13.8045 23.9429 13.8117 23.9459C13.8231 23.9513 13.835 23.9559 13.8464 23.9598C13.8514 23.9617 13.8567 23.9629 13.8617 23.9648C13.8716 23.9682 13.8815 23.9717 13.8918 23.9748C13.8948 23.9755 13.8979 23.9763 13.9013 23.9774C13.9067 23.979 13.912 23.9805 13.917 23.9817C13.9257 23.984 13.9345 23.9859 13.9433 23.9874C13.9551 23.9897 13.9669 23.9917 13.9787 23.9932C13.9871 23.9944 13.9955 23.9955 14.0039 23.9963C14.0077 23.9967 14.0112 23.997 14.015 23.997C14.0192 23.997 14.023 23.9978 14.0272 23.9982C14.0409 23.9993 14.0546 23.9997 14.0695 23.9997C14.0844 23.9997 14.0993 23.9993 14.1134 23.9982C14.1168 23.9982 14.1202 23.9974 14.1233 23.9974C14.1267 23.9974 14.1301 23.997 14.1336 23.9967C14.1408 23.9959 14.1477 23.9951 14.1549 23.994C14.1568 23.994 14.1584 23.9936 14.1603 23.9932C14.1641 23.9928 14.1683 23.9921 14.1721 23.9913C14.1801 23.9901 14.1881 23.989 14.1957 23.9874C14.2015 23.9863 14.2072 23.9851 14.2133 23.9836C14.2163 23.9828 14.219 23.9824 14.2221 23.9817C14.2262 23.9805 14.2304 23.9794 14.2346 23.9782C14.2388 23.9771 14.243 23.9759 14.2472 23.9748C14.2629 23.9701 14.2777 23.9655 14.2922 23.9598C14.3037 23.9559 14.3155 23.9509 14.3269 23.9459C14.333 23.9433 14.3391 23.9406 14.3452 23.9375C14.3452 23.9375 14.346 23.9375 14.3464 23.9371C14.3559 23.9325 14.3654 23.9275 14.3746 23.9225C14.3879 23.9156 14.4009 23.9079 14.4135 23.8995C14.4185 23.8964 14.423 23.8937 14.428 23.8906C14.433 23.8872 14.4387 23.8833 14.4448 23.8791C14.4459 23.8783 14.4474 23.8772 14.449 23.876C14.4528 23.8733 14.457 23.8703 14.4612 23.8672C14.468 23.8622 14.4745 23.8572 14.481 23.8518C14.6446 23.7174 14.8155 23.5845 14.9886 23.4573C15.328 23.2088 15.6846 22.9767 16.0481 22.7681C17.7608 21.7839 19.7153 21.2634 21.7 21.2634C23.6846 21.2634 25.5102 21.7497 27.178 22.6702C27.3782 22.7808 27.6245 22.7766 27.8206 22.659C28.0162 22.5419 28.1379 22.3267 28.1379 22.0974V8.1653C28.5482 7.6709 28.8678 7.11579 29.0886 6.51421C29.1824 6.25913 29.1092 5.9737 28.9071 5.79584C29.0101 5.67752 29.1107 5.55997 29.2076 5.44396C30.3574 4.06638 31.1248 2.79714 31.9447 0.917474C32.0324 0.716562 32.0145 0.486454 31.897 0.301676V0.301292ZM12.7332 21.633C10.8248 20.5362 8.64795 19.9565 6.43829 19.9565C4.67483 19.9565 2.90604 20.3326 1.29666 21.0471V2.80674C2.88087 2.00232 4.655 1.57783 6.43829 1.57783C8.95686 1.57783 11.4312 2.42912 13.4208 3.97687V22.0578C13.1958 21.9088 12.9658 21.7666 12.7332 21.633ZM26.8416 9.33082V21.0471C25.2322 20.3326 23.4634 19.9565 21.7 19.9565C19.4903 19.9565 17.3134 20.5362 15.4054 21.633C15.1728 21.7666 14.9425 21.9088 14.7175 22.0578V3.97726C16.7071 2.42912 19.1814 1.57822 21.7 1.57822C22.5988 1.57822 23.4886 1.68271 24.352 1.88977C24.3474 1.89284 24.3429 1.89553 24.3383 1.8986C24.3181 1.91128 24.2978 1.92396 24.278 1.93663C24.2532 1.95238 24.2284 1.96852 24.204 1.98427C24.1808 1.99925 24.1579 2.01423 24.135 2.02922C24.0374 2.09375 23.9504 2.15291 23.87 2.20977C23.8299 2.23781 23.7906 2.26585 23.7506 2.29467C23.6461 2.37034 23.5439 2.44717 23.447 2.52285C23.4211 2.54283 23.3955 2.56357 23.3696 2.58393L23.3643 2.58816C23.2857 2.65039 23.2033 2.718 23.111 2.79637C23.1087 2.79829 23.1068 2.80021 23.1045 2.80213L23.0569 2.84285C23.0546 2.84477 23.0527 2.84669 23.0504 2.84861C23.0199 2.87474 22.9901 2.90086 22.96 2.92737L22.955 2.93159C22.9345 2.95003 22.9135 2.96847 22.8933 2.98691C22.7838 2.92045 22.6606 2.88972 22.5382 2.89394C22.431 2.8974 22.3246 2.92813 22.2293 2.98499C22.2156 2.99306 22.2022 3.00189 22.1889 3.01111C20.5356 4.17318 19.2142 5.97947 18.4682 8.09731C17.8035 9.98388 17.6216 12.0514 17.9522 13.9307C17.2456 15.1619 16.5949 16.4235 16.0069 17.7088C15.9771 17.7738 15.9744 17.8475 15.9989 17.9144C16.0233 17.9812 16.0732 18.0357 16.1377 18.0653L16.8302 18.3869C16.8665 18.4038 16.9042 18.4114 16.9416 18.4114C17.0427 18.4114 17.1392 18.3534 17.1842 18.2551C17.7047 17.1172 18.2764 15.999 18.8946 14.9041C20.5497 14.5338 22.1034 13.8147 23.4253 12.8293C24.3432 12.1451 25.1495 11.3326 25.8001 10.4207C25.9145 10.2597 25.9499 10.0596 25.9 9.8721C25.9099 9.86749 25.9194 9.86288 25.9286 9.85827C25.945 9.8502 25.9614 9.84213 25.9774 9.83445L25.9953 9.82561C26.0236 9.8114 26.0514 9.79719 26.0773 9.78374C26.1116 9.76607 26.1456 9.7484 26.1791 9.73073C26.1826 9.72881 26.1856 9.72727 26.1891 9.72535L26.1914 9.7242C26.2257 9.70614 26.2589 9.6877 26.292 9.66926C26.329 9.6489 26.3664 9.62777 26.403 9.60665C26.4114 9.60165 26.4198 9.59704 26.4278 9.59205C26.4503 9.57899 26.4728 9.56554 26.4938 9.55286C26.5304 9.53135 26.5666 9.50907 26.6044 9.48564L26.62 9.47565C26.6387 9.46374 26.6578 9.45183 26.6765 9.43992C26.707 9.42072 26.7363 9.40151 26.7649 9.38307C26.7745 9.37692 26.7832 9.37078 26.7928 9.36463C26.8092 9.35387 26.8256 9.34273 26.8412 9.33197L26.8416 9.33082Z" fill="black"/>
</svg>
