<svg width="35" height="42" viewBox="0 0 35 42" fill="none" xmlns="http://www.w3.org/2000/svg">
<path d="M31.894 9.83055C31.7836 9.74078 31.6511 9.68309 31.5107 9.66367C31.3704 9.64425 31.2275 9.66383 31.0973 9.7203L18.4186 15.2766C17.8673 15.5197 17.1769 15.6353 16.4682 15.6353C15.4799 15.6393 14.4574 15.4068 13.7447 15.0907C13.5276 14.9981 13.3208 14.8823 13.1279 14.7453C13.1804 14.7187 13.246 14.6895 13.3182 14.6603L24.8498 9.60739L26.5692 10.3512V8.1768C26.5718 8.02173 26.5397 7.86808 26.4754 7.72731C26.4111 7.58654 26.3162 7.46231 26.1977 7.36387C26.0878 7.2742 25.9557 7.21655 25.8158 7.19713C25.6759 7.1777 25.5334 7.19724 25.4037 7.25362L12.7249 12.81C12.3338 12.9694 11.9978 13.1659 11.7143 13.4515C11.386 13.7793 11.1996 14.2255 11.1959 14.6922C11.1959 14.7055 11.1998 14.728 11.1998 14.728V34.2941L11.1972 34.3207C11.1972 34.326 11.2011 34.3286 11.2011 34.3339V34.3552H11.2037C11.23 35.0393 11.5712 35.475 11.8967 35.7831C12.9205 36.697 14.6399 37.2084 16.4695 37.235C17.3357 37.235 18.2151 37.1021 19.0289 36.7488L31.7116 31.1912C32.0462 31.045 32.2654 30.6824 32.2654 30.272V10.6435C32.2674 10.4885 32.2351 10.335 32.1709 10.1944C32.1066 10.0537 32.012 9.92936 31.894 9.83055ZM23.8523 6.11127C23.83 5.81904 23.7106 5.5401 23.4979 5.37273C23.3875 5.28296 23.255 5.22528 23.1147 5.20586C22.9743 5.18643 22.8314 5.20601 22.7012 5.26248L10.0225 10.8162C9.47124 11.0579 8.77955 11.1748 8.07212 11.1748C7.0838 11.1775 6.06137 10.945 5.34868 10.6275C5.13128 10.5365 4.92441 10.4216 4.7318 10.2848C4.7843 10.2583 4.84993 10.229 4.92212 10.1998L16.4551 5.14692L18.1744 5.89077V3.71898C18.1768 3.56382 18.1445 3.41013 18.0799 3.26937C18.0154 3.12861 17.9203 3.00442 17.8017 2.90605C17.6914 2.8164 17.5592 2.75877 17.4191 2.73935C17.279 2.71993 17.1363 2.73945 17.0063 2.7958L4.32755 8.35346C3.93643 8.51286 3.60174 8.70812 3.31693 8.99504C2.98912 9.32303 2.80316 9.76917 2.7998 10.2357C2.7998 10.2516 2.80374 10.2729 2.80374 10.2729V29.9014H2.80637C2.83262 30.5854 3.17387 31.0211 3.49937 31.3293C4.52312 32.2432 6.24249 32.7532 8.07343 32.7798C8.57065 32.7768 9.06628 32.7225 9.55262 32.6178V14.7267C9.53949 13.7969 9.90699 12.9043 10.5527 12.2614C11.0001 11.8222 11.5317 11.4804 12.1146 11.2572L23.8523 6.11127Z" fill="#FF5800"/>
</svg>
