<svg width="28" height="24" viewBox="0 0 28 24" fill="none" xmlns="http://www.w3.org/2000/svg">
<path d="M25.8409 2.12177C25.1568 1.44911 24.3445 0.915505 23.4504 0.551444C22.5563 0.187383 21.598 0 20.6302 0C19.6625 0 18.7042 0.187383 17.8101 0.551444C16.916 0.915505 16.1037 1.44911 15.4195 2.12177L13.9996 3.51714L12.5798 2.12177C11.1978 0.763676 9.32345 0.00070395 7.36905 0.000703964C5.41466 0.000703978 3.54031 0.763676 2.15835 2.12177C0.77638 3.47987 1.45614e-08 5.32185 0 7.24249C-1.45614e-08 9.16313 0.77638 11.0051 2.15835 12.3632L3.57823 13.7586L13.9996 24L24.4211 13.7586L25.8409 12.3632C26.5254 11.6909 27.0684 10.8926 27.4389 10.0139C27.8093 9.13531 28 8.19356 28 7.24249C28 6.29142 27.8093 5.34967 27.4389 4.47104C27.0684 3.59241 26.5254 2.79412 25.8409 2.12177Z" fill="#EB5757"/>
</svg>
