<svg width="32" height="28" viewBox="0 0 32 28" fill="none" xmlns="http://www.w3.org/2000/svg">
<path d="M27.8409 4.12177C27.1568 3.44911 26.3445 2.9155 25.4504 2.55144C24.5563 2.18738 23.598 2 22.6302 2C21.6625 2 20.7042 2.18738 19.8101 2.55144C18.916 2.9155 18.1037 3.44911 17.4195 4.12177L15.9996 5.51714L14.5798 4.12177C13.1978 2.76368 11.3234 2.0007 9.36905 2.0007C7.41466 2.0007 5.54031 2.76368 4.15835 4.12177C2.77638 5.47987 2 7.32185 2 9.24249C2 11.1631 2.77638 13.0051 4.15835 14.3632L5.57823 15.7586L15.9996 26L26.4211 15.7586L27.8409 14.3632C28.5254 13.6909 29.0684 12.8926 29.4389 12.0139C29.8093 11.1353 30 10.1936 30 9.24249C30 8.29142 29.8093 7.34967 29.4389 6.47104C29.0684 5.59241 28.5254 4.79412 27.8409 4.12177V4.12177Z" stroke="black" stroke-width="3" stroke-linecap="round" stroke-linejoin="round"/>
</svg>
