<svg width="40" height="45" viewBox="0 0 40 45" fill="none" xmlns="http://www.w3.org/2000/svg">
<path d="M33.5325 10.4754C32.7506 9.69063 31.8222 9.06809 30.8004 8.64335C29.7786 8.21861 28.6834 8 27.5774 8C26.4714 8 25.3762 8.21861 24.3544 8.64335C23.3326 9.06809 22.4042 9.69063 21.6223 10.4754L19.9996 12.1033L18.3769 10.4754C16.7975 8.89096 14.6554 8.00082 12.4218 8.00082C10.1882 8.00082 8.04607 8.89096 6.46668 10.4754C4.88729 12.0599 4 14.2088 4 16.4496C4 18.6903 4.88729 20.8393 6.46668 22.4237L8.0894 24.0517L19.9996 36L31.9098 24.0517L33.5325 22.4237C34.3148 21.6393 34.9353 20.708 35.3587 19.6829C35.7821 18.6579 36 17.5592 36 16.4496C36 15.34 35.7821 14.2413 35.3587 13.2162C34.9353 12.1912 34.3148 11.2598 33.5325 10.4754V10.4754Z" stroke="#C4C4C4" stroke-width="3" stroke-linecap="round" stroke-linejoin="round"/>
</svg>
