<svg width="39" height="49" viewBox="0 0 39 49" fill="none" xmlns="http://www.w3.org/2000/svg">
<g filter="url(#filter0_b_102_380)">
<path d="M3.60802 25.8195H15.512C16.6032 25.8195 17.496 24.9295 17.496 23.8417V8.01911C17.496 6.93131 16.6032 6.04129 15.512 6.04129L3.60802 6.04129C2.51682 6.04129 1.62402 6.93131 1.62402 8.01911L1.62402 23.8417C1.62402 24.9295 2.51682 25.8195 3.60802 25.8195ZM3.60802 41.642H15.512C16.6032 41.642 17.496 40.752 17.496 39.6642V31.7529C17.496 30.6651 16.6032 29.7751 15.512 29.7751H3.60802C2.51682 29.7751 1.62402 30.6651 1.62402 31.7529L1.62402 39.6642C1.62402 40.752 2.51682 41.642 3.60802 41.642ZM23.448 41.642H35.352C36.4432 41.642 37.336 40.752 37.336 39.6642V23.8417C37.336 22.7539 36.4432 21.8638 35.352 21.8638H23.448C22.3568 21.8638 21.464 22.7539 21.464 23.8417L21.464 39.6642C21.464 40.752 22.3568 41.642 23.448 41.642ZM21.464 8.01911V15.9304C21.464 17.0182 22.3568 17.9082 23.448 17.9082H35.352C36.4432 17.9082 37.336 17.0182 37.336 15.9304V8.01911C37.336 6.93131 36.4432 6.04129 35.352 6.04129L23.448 6.04129C22.3568 6.04129 21.464 6.93131 21.464 8.01911Z" fill="#0D276B"/>
</g>
<defs>
<filter id="filter0_b_102_380" x="-3.71997" y="-3.12524" width="46.4" height="55.3947" filterUnits="userSpaceOnUse" color-interpolation-filters="sRGB">
<feFlood flood-opacity="0" result="BackgroundImageFix"/>
<feGaussianBlur in="BackgroundImageFix" stdDeviation="2"/>
<feComposite in2="SourceAlpha" operator="in" result="effect1_backgroundBlur_102_380"/>
<feBlend mode="normal" in="SourceGraphic" in2="effect1_backgroundBlur_102_380" result="shape"/>
</filter>
</defs>
</svg>
