<svg width="41" height="39" viewBox="0 0 41 39" fill="none" xmlns="http://www.w3.org/2000/svg">
<path fill-rule="evenodd" clip-rule="evenodd" d="M17.5361 34.8761C17.5361 34.3516 17.327 33.8485 16.955 33.4776C16.5829 33.1067 16.0783 32.8983 15.5521 32.8983H5.63206V5.20881H15.5521C16.0783 5.20881 16.5829 5.00044 16.955 4.62952C17.327 4.25861 17.5361 3.75554 17.5361 3.23099C17.5361 2.70644 17.327 2.20338 16.955 1.83246C16.5829 1.46155 16.0783 1.25317 15.5521 1.25317H5.63206C4.57968 1.25317 3.57041 1.66993 2.82626 2.41175C2.08212 3.15358 1.66406 4.15971 1.66406 5.20881V32.8983C1.66406 33.9474 2.08212 34.9535 2.82626 35.6953C3.57041 36.4372 4.57968 36.8539 5.63206 36.8539H15.5521C16.0783 36.8539 16.5829 36.6455 16.955 36.2746C17.327 35.9037 17.5361 35.4007 17.5361 34.8761Z" fill="#C4C4C4"/>
<path d="M38.792 20.4425C39.1549 20.0748 39.3586 19.5798 39.3594 19.064V19.0521C39.3583 18.5295 39.1493 18.0287 38.7781 17.6597L30.8421 9.74846C30.659 9.55956 30.4401 9.40888 30.1981 9.30523C29.956 9.20157 29.6957 9.14701 29.4322 9.14473C29.1688 9.14245 28.9076 9.19249 28.6637 9.29193C28.4199 9.39138 28.1984 9.53824 28.0121 9.72394C27.8258 9.90965 27.6785 10.1305 27.5787 10.3735C27.479 10.6166 27.4288 10.877 27.4311 11.1397C27.4334 11.4023 27.4881 11.6618 27.5921 11.9031C27.6961 12.1444 27.8472 12.3626 28.0367 12.5451L32.586 17.0802H13.5674C13.0412 17.0802 12.5365 17.2886 12.1645 17.6595C11.7924 18.0304 11.5834 18.5335 11.5834 19.0581C11.5834 19.5826 11.7924 20.0857 12.1645 20.4566C12.5365 20.8275 13.0412 21.0359 13.5674 21.0359H32.586L28.0367 25.571C27.6753 25.944 27.4753 26.4436 27.4798 26.9622C27.4843 27.4808 27.693 27.9769 28.0609 28.3436C28.4287 28.7103 28.9263 28.9183 29.4465 28.9228C29.9667 28.9273 30.4679 28.7279 30.8421 28.3677L38.7781 20.4564L38.792 20.4425Z" fill="#C4C4C4"/>
</svg>
