<svg width="40" height="45" viewBox="0 0 40 45" fill="none" xmlns="http://www.w3.org/2000/svg">
<path d="M21.6313 22.442C22.8432 22.442 24.0054 22.9462 24.8623 23.8435C25.7192 24.7409 26.2006 25.958 26.2006 27.2271L26.1975 29.6148C26.5113 35.4733 22.2025 38.3954 14.2109 38.3954C6.24672 38.3954 1.84351 35.5116 1.84351 29.6978V27.2271C1.84351 25.958 2.32491 24.7409 3.1818 23.8435C4.0387 22.9462 5.2009 22.442 6.41274 22.442H21.6313ZM33.8159 22.442C35.0278 22.442 36.19 22.9462 37.0469 23.8435C37.9038 24.7409 38.3852 25.958 38.3852 27.2271V28.9066C38.6593 34.1622 34.8516 36.7972 27.8927 36.7972C26.9484 36.7972 26.0604 36.7493 25.2304 36.6536C26.1088 35.8144 26.7826 34.767 27.1951 33.5992L27.8927 33.6071C33.3286 33.6071 35.5005 32.103 35.3405 28.9944V27.2271C35.3405 26.804 35.1801 26.3984 34.8944 26.0992C34.6088 25.8001 34.2214 25.6321 33.8175 25.6321H27.5317C27.2261 24.3964 26.5735 23.2851 25.6583 22.442H33.8175H33.8159ZM21.6313 25.6321H6.41274C6.00879 25.6321 5.62139 25.8001 5.33576 26.0992C5.05013 26.3984 4.88966 26.804 4.88966 27.2271V29.6993C4.88966 33.3535 7.71649 35.2053 14.2109 35.2053C20.6809 35.2053 23.3494 33.395 23.1544 29.7025V27.2271C23.1544 26.804 22.9939 26.3984 22.7083 26.0992C22.4227 25.8001 22.0353 25.6321 21.6313 25.6321ZM14.0281 3.30184C16.0483 3.30184 17.9856 4.14224 19.4141 5.63815C20.8425 7.13407 21.645 9.16297 21.645 11.2785C21.645 13.3941 20.8425 15.423 19.4141 16.9189C17.9856 18.4148 16.0483 19.2552 14.0281 19.2552C12.008 19.2552 10.0706 18.4148 8.64215 16.9189C7.21371 15.423 6.41121 13.3941 6.41121 11.2785C6.41121 9.16297 7.21371 7.13407 8.64215 5.63815C10.0706 4.14224 12.008 3.30184 14.0281 3.30184ZM29.2589 6.49187C30.8747 6.49187 32.4243 7.16406 33.5668 8.36055C34.7093 9.55704 35.3512 11.1798 35.3512 12.8719C35.3512 14.564 34.7093 16.1868 33.5668 17.3833C32.4243 18.5798 30.8747 19.252 29.2589 19.252C27.6431 19.252 26.0935 18.5798 24.951 17.3833C23.8085 16.1868 23.1666 14.564 23.1666 12.8719C23.1666 11.1798 23.8085 9.55704 24.951 8.36055C26.0935 7.16406 27.6431 6.49187 29.2589 6.49187ZM14.0281 6.49187C13.4279 6.49187 12.8335 6.61568 12.279 6.85623C11.7244 7.09678 11.2205 7.44937 10.7961 7.89385C10.3717 8.33833 10.035 8.866 9.80529 9.44675C9.57559 10.0275 9.45737 10.6499 9.45737 11.2785C9.45737 11.9071 9.57559 12.5295 9.80529 13.1103C10.035 13.691 10.3717 14.2187 10.7961 14.6632C11.2205 15.1077 11.7244 15.4602 12.279 15.7008C12.8335 15.9413 13.4279 16.0652 14.0281 16.0652C15.2404 16.0652 16.4029 15.5609 17.2601 14.6632C18.1173 13.7655 18.5989 12.548 18.5989 11.2785C18.5989 10.009 18.1173 8.79152 17.2601 7.89385C16.4029 6.99618 15.2404 6.49187 14.0281 6.49187ZM29.2589 9.6819C28.451 9.6819 27.6762 10.018 27.1049 10.6162C26.5337 11.2145 26.2127 12.0259 26.2127 12.8719C26.2127 13.718 26.5337 14.5294 27.1049 15.1276C27.6762 15.7259 28.451 16.062 29.2589 16.062C30.0668 16.062 30.8416 15.7259 31.4128 15.1276C31.9841 14.5294 32.305 13.718 32.305 12.8719C32.305 12.0259 31.9841 11.2145 31.4128 10.6162C30.8416 10.018 30.0668 9.6819 29.2589 9.6819Z" fill="#C4C4C4"/>
</svg>
