<svg width="40" height="45" viewBox="0 0 40 45" fill="none" xmlns="http://www.w3.org/2000/svg">
<path d="M5 15.2V33.9C5 37.6417 7.99 39 10 39H35V35.6H10.02C9.25 35.5796 8.33333 35.2702 8.33333 33.9C8.33333 32.5298 9.25 32.2204 10.02 32.2H35V8.4C35 6.5249 33.505 5 31.6667 5H10C7.99 5 5 6.3583 5 10.1V15.2ZM10 8.4H31.6667V28.8H8.33333V10.1C8.33333 8.7298 9.25 8.4204 10 8.4Z" fill="#C4C4C4"/>
<path d="M26.3767 19.175H21.3267V24.35H18.6767V19.175H13.6267V16.775H18.6767V11.6H21.3267V16.775H26.3767V19.175Z" fill="#C4C4C4"/>
</svg>
